<?xml version="1.0" standalone="no"?><!DOCTYPE svg PUBLIC "-//W3C//DTD SVG 1.1//EN" "http://www.w3.org/Graphics/SVG/1.1/DTD/svg11.dtd"><svg t="1565339760472" class="icon" viewBox="0 0 1024 1024" version="1.1" xmlns="http://www.w3.org/2000/svg" p-id="2740" xmlns:xlink="http://www.w3.org/1999/xlink" width="200" height="200"><defs><style type="text/css"></style></defs><path d="M355.931 396.25l-0.142 0.43h0.142zM368.151 392.513l-12.221 4.172c0.43 0.287 0.43 0.58 0.43 0.858 6.324-2.875 10.783-4.455 11.79-5.033z" fill="#FF3C3C" p-id="2741"></path><path d="M831.158 486.686c-11.357-57.515-17.499-107.218-65.89-160.271-1.489 157.476-31.088 163.058-85.259 177.015 7.63-14.148 11.726-26.621 11.171-40.02 6.516-90.464 14.331-171.995-65.89-256.69-1.299 52.679 12.47 97.354-25.872 141.467-11.357-81.905-56.956-149.095-108.521-214.811C455.348 98.38 423.512 60.78 374.194 27.841c13.216 38.718 34.433 71.481 35.734 107.406 3.539 12.284 7.63 24.386 10.059 36.665 17.123 92.329-8.745 181.673-38.718 270.651-21.588 40.58-42.627 80.971-65.334 120.435-1.675 3.355-2.975 7.814-5.579 10.611 0 0-32.015-135.695 15.634-216.3h-0.183c-1.299 0.751-7.071 2.789-15.262 6.516 0-0.371 0-0.751-0.371-1.11h-0.371c-0.558 0.751-1.11 1.489-2.051 2.414-48.027 21.965-169.761 101.632-107.406 311.785 11.726 70.177 36.111 137.371 94.374 196.379 0 0 13.402 16.192 37.038 37.413 11.916 11.357 24.386 21.774 39.463 31.643 3.539 2.235 7.63 4.846 11.726 7.261 84.321 53.793 218.716 91.955 353.487-66.45a402.53 402.53 0 0 0 36.665-47.279c0-0.751 0.371-0.933 0.751-1.11v-0.371c31.27-49.329 49.51-103.124 58.822-159.52 16.382-63.1 11.545-119.5-1.489-188.192z m-265.06 465.351C427.24 987.586 309.783 826.95 309.783 826.95c166.031 143.888 256.315 104.611 256.315 104.611 25.314 11.171 0 20.474 0 20.474z m32.757-18.984c-6.702 0-11.726-4.846-11.726-11.726a11.677 11.677 0 0 1 11.726-11.726c6.516 0 11.545 5.024 11.545 11.726 0 6.702-4.846 11.726-11.545 11.726z" fill="#FF3C3C" p-id="2742"></path></svg>