<?xml version="1.0" encoding="utf-8"?>
<!-- Generator: Adobe Illustrator 22.1.0, SVG Export Plug-In . SVG Version: 6.00 Build 0)  -->
<svg version="1.1" id="图层_1" xmlns="http://www.w3.org/2000/svg" xmlns:xlink="http://www.w3.org/1999/xlink" x="0px" y="0px"
	 viewBox="0 0 100 40" style="enable-background:new 0 0 100 40;" xml:space="preserve">
<style type="text/css">
	.st0{fill:#357CE1;}
	.st1{font-family:'MFLiHei_Noncommercial-Regular-GBpc-EUC-H';}
	.st2{font-size:18.251px;}
	.st3{fill:#D7E2F1;}
	.st4{fill:none;}
</style>
<g>
	<text transform="matrix(0.9 0 0 1 36.1836 27.4482)" class="st0 st1 st2">HX</text>
	<text transform="matrix(0.9 0 0 1 58.1836 27.4482)" class="st3 st1 st2">EX</text>
	<g>
		<polygon class="st4" points="35.1,23.2 37.2,21.1 35.1,19 		"/>
		<polygon class="st4" points="21.2,16.4 21.2,5.1 21.2,5.1 19.1,3 17,5.1 17,16.4 		"/>
		<polygon class="st4" points="30,13.9 30,28.4 31.5,26.8 31.5,15.4 		"/>
		<polygon class="st4" points="17,25.9 17,37.2 19.1,39.3 21.2,37.2 21.2,25.9 		"/>
		<polygon class="st4" points="6.6,15.5 6.6,26.8 8.2,28.4 8.2,13.9 		"/>
		<polygon class="st4" points="24.8,8.7 24.8,20.3 24.5,20.3 21.2,20.3 17,20.3 13.9,20.3 13.4,20.3 13.4,8.7 11.8,10.3 11.8,32 
			13.4,33.5 13.4,21.9 13.9,21.9 17,21.9 21.2,21.9 24.5,21.9 24.8,21.9 24.8,33.6 26.3,32 26.3,10.2 		"/>
		<polygon class="st4" points="1,21.1 3,23.2 3,19.1 		"/>
		<polygon class="st0" points="3,19.1 3,23.2 6.6,26.8 6.6,15.5 		"/>
		<polygon class="st0" points="13.9,20.3 13.9,16.4 17,16.4 17,5.1 13.4,8.7 13.4,20.3 		"/>
		<rect x="17" y="16.4" class="st0" width="4.2" height="4"/>
		<rect x="13.9" y="16.4" class="st0" width="3.1" height="4"/>
		<polygon class="st0" points="21.2,16.4 24.5,16.4 24.5,20.3 24.8,20.3 24.8,8.7 21.2,5.1 21.2,5.1 		"/>
		<rect x="21.2" y="16.4" class="st0" width="3.4" height="4"/>
		<polygon class="st0" points="13.9,25.9 13.9,21.9 13.4,21.9 13.4,33.5 17,37.2 17,25.9 		"/>
		<rect x="17" y="21.9" class="st0" width="4.2" height="4"/>
		<rect x="13.9" y="21.9" class="st0" width="3.1" height="4"/>
		<polygon class="st0" points="24.5,21.9 24.5,25.9 21.2,25.9 21.2,37.2 24.8,33.6 24.8,21.9 		"/>
		<rect x="21.2" y="21.9" class="st0" width="3.4" height="4"/>
		<polygon class="st0" points="31.5,15.4 31.5,26.8 35.1,23.2 35.1,19 		"/>
		<polygon class="st3" points="8.2,13.9 8.2,28.4 11.8,32 11.8,10.3 		"/>
		<polygon class="st3" points="26.3,10.2 26.3,32 30,28.4 30,13.9 		"/>
	</g>
</g>
</svg>
